<?xml version="1.0" encoding="utf-8"?>
<!-- Generator: Adobe Illustrator 24.3.0, SVG Export Plug-In . SVG Version: 6.00 Build 0)  -->
<svg version="1.1" id="圖層_1" xmlns="http://www.w3.org/2000/svg" xmlns:xlink="http://www.w3.org/1999/xlink" x="0px" y="0px"
	 viewBox="0 0 304 361" style="enable-background:new 0 0 304 361;" xml:space="preserve">
<style type="text/css">
	.st0{fill:#00A7B9;}
	.st1{filter:url(#Adobe_OpacityMaskFilter);}
	.st2{fill-rule:evenodd;clip-rule:evenodd;fill:#FFFFFF;}
	.st3{mask:url(#j9yivjpg7c_1_);fill-rule:evenodd;clip-rule:evenodd;fill:#FFFFFF;}
	.st4{filter:url(#Adobe_OpacityMaskFilter_1_);}
	.st5{mask:url(#edwp4oijee_1_);fill-rule:evenodd;clip-rule:evenodd;fill:#FFFFFF;}
	.st6{filter:url(#Adobe_OpacityMaskFilter_2_);}
	.st7{mask:url(#edwp4oijee_2_);fill-rule:evenodd;clip-rule:evenodd;fill:#FFFFFF;}
	.st8{filter:url(#Adobe_OpacityMaskFilter_3_);}
	.st9{mask:url(#edwp4oijee_3_);fill-rule:evenodd;clip-rule:evenodd;fill:#FFFFFF;}
	.st10{filter:url(#Adobe_OpacityMaskFilter_4_);}
	.st11{mask:url(#edwp4oijee_4_);fill-rule:evenodd;clip-rule:evenodd;fill:#FFFFFF;}
	.st12{filter:url(#Adobe_OpacityMaskFilter_5_);}
	.st13{mask:url(#edwp4oijee_5_);fill-rule:evenodd;clip-rule:evenodd;fill:#FFFFFF;}
	.st14{filter:url(#Adobe_OpacityMaskFilter_6_);}
	.st15{mask:url(#edwp4oijee_6_);fill-rule:evenodd;clip-rule:evenodd;fill:#FFFFFF;}
	.st16{filter:url(#Adobe_OpacityMaskFilter_7_);}
	.st17{mask:url(#edwp4oijee_7_);fill-rule:evenodd;clip-rule:evenodd;fill:#00A8BA;}
	.st18{filter:url(#Adobe_OpacityMaskFilter_8_);}
	.st19{mask:url(#edwp4oijee_8_);fill-rule:evenodd;clip-rule:evenodd;fill:#231815;}
	.st20{filter:url(#Adobe_OpacityMaskFilter_9_);}
	.st21{mask:url(#edwp4oijee_9_);fill-rule:evenodd;clip-rule:evenodd;fill:#231815;}
	.st22{filter:url(#Adobe_OpacityMaskFilter_10_);}
	.st23{mask:url(#edwp4oijee_10_);fill-rule:evenodd;clip-rule:evenodd;fill:#231815;}
	.st24{filter:url(#Adobe_OpacityMaskFilter_11_);}
	.st25{mask:url(#edwp4oijee_11_);fill-rule:evenodd;clip-rule:evenodd;fill:#FFFFFF;}
	.st26{filter:url(#Adobe_OpacityMaskFilter_12_);}
	.st27{mask:url(#edwp4oijee_12_);fill-rule:evenodd;clip-rule:evenodd;fill:#231815;}
	.st28{filter:url(#Adobe_OpacityMaskFilter_13_);}
	.st29{mask:url(#edwp4oijee_13_);fill-rule:evenodd;clip-rule:evenodd;fill:#231815;}
	.st30{filter:url(#Adobe_OpacityMaskFilter_14_);}
	.st31{mask:url(#edwp4oijee_14_);fill-rule:evenodd;clip-rule:evenodd;fill:#FFFFFF;}
	.st32{filter:url(#Adobe_OpacityMaskFilter_15_);}
	.st33{mask:url(#edwp4oijee_15_);fill-rule:evenodd;clip-rule:evenodd;fill:#FFFFFF;}
	.st34{filter:url(#Adobe_OpacityMaskFilter_16_);}
	.st35{mask:url(#edwp4oijee_16_);fill-rule:evenodd;clip-rule:evenodd;fill:#231815;}
	.st36{filter:url(#Adobe_OpacityMaskFilter_17_);}
	.st37{mask:url(#tlaogedfpg_1_);fill-rule:evenodd;clip-rule:evenodd;fill:#00B3BD;}
	.st38{filter:url(#Adobe_OpacityMaskFilter_18_);}
	.st39{mask:url(#a221rql8oi_1_);fill-rule:evenodd;clip-rule:evenodd;fill:#00B3BD;}
	.st40{filter:url(#Adobe_OpacityMaskFilter_19_);}
	.st41{mask:url(#lcagpj1y9k_1_);fill-rule:evenodd;clip-rule:evenodd;fill:#00B3BD;}
	.st42{fill-rule:evenodd;clip-rule:evenodd;fill:#231815;}
	.st43{filter:url(#Adobe_OpacityMaskFilter_20_);}
	.st44{mask:url(#d3sr0t0zsm_1_);fill-rule:evenodd;clip-rule:evenodd;fill:#FFFFFF;}
	.st45{fill:none;stroke:#FFFFFF;stroke-width:13.852;}
	.st46{fill-rule:evenodd;clip-rule:evenodd;fill:#00A8BA;}
	.st47{fill:none;stroke:#00A8BA;stroke-width:0.495;}
</style>
<rect class="st0" width="304" height="361"/>
<g transform="translate(-84 -56)">
	<g transform="translate(103 75)">
		<g transform="translate(0 3.096)">
			<defs>
				<filter id="Adobe_OpacityMaskFilter" filterUnits="userSpaceOnUse" x="0" y="0" width="39.6" height="41.5">
					<feColorMatrix  type="matrix" values="1 0 0 0 0  0 1 0 0 0  0 0 1 0 0  0 0 0 1 0"/>
				</filter>
			</defs>
			<mask maskUnits="userSpaceOnUse" x="0" y="0" width="39.6" height="41.5" id="j9yivjpg7c_1_">
				<g class="st1">
					<path id="z9z341zmxb_1_" class="st2" d="M0,0h39.6v41.5H0V0z"/>
				</g>
			</mask>
			<path class="st3" d="M16.1,17.3h3.8c4.8,0,8.6-1.2,8.6-5.1c0-3-1.8-4.2-5.1-4.3H18C18,7.9,16.1,17.3,16.1,17.3z M8.8,0h13.3
				C30,0.1,39.6,0.3,39.6,10.6c0,7.3-5.7,9.9-12.1,10.7v0.1c3.3,0.3,4.4,4.7,5,7.4l3,12.8H24.3L22.1,31c-1.1-5.4-1.4-5.8-6.4-5.8
				h-1.2l-3.3,16.4H0L8.8,0z"/>
		</g>
		<path class="st2" d="M66,26.2c0-3.3-1.3-6.1-5.2-6.1c-4.7,0-7.2,3.2-7.9,6.1L66,26.2L66,26.2z M68.9,43.6
			c-3.8,1.1-7.8,1.7-10.9,1.7c-10.4,0-16-6.4-16-14.2c0-7.2,4.8-18.3,18.6-18.3C68.8,12.9,75,17,75,26.4c0,1.2-0.4,4-0.8,5.8h-22
			c0.1,3.3,1.8,6,8.4,6c2.9,0,6.7-0.7,9.7-2.1L68.9,43.6L68.9,43.6z M81.1,24.7h16.2l-1.6,7.9H79.6L81.1,24.7z M108,3.1h27.9
			l-1.6,7.9h-16.9l-2.1,9.1h16.4l-1.6,7.9h-16.1l-3.5,16.7H99.1L108,3.1z M149.7,13.6l-1.2,6.4h0.1c1.7-3.6,5.2-7.1,9.6-7.1
			c1.4,0,3.1,0.2,4.5,0.8l-2.4,9.5c-1.4-1.1-2.9-1.3-5-1.3c-4.5,0-7.2,3.9-8,8.5l-3,14.3h-10.7l4.8-22.9c0.5-2.7,1-5.3,1.3-8.1
			L149.7,13.6L149.7,13.6z M185.7,26.2c0-3.3-1.3-6.1-5.3-6.1c-4.7,0-7.2,3.2-7.9,6.1L185.7,26.2L185.7,26.2z M188.6,43.6
			c-3.8,1.1-7.8,1.7-10.9,1.7c-10.4,0-16-6.4-16-14.2c0-7.2,4.8-18.3,18.6-18.3c8.2,0,14.3,4.1,14.3,13.5c0,1.2-0.4,4-0.8,5.8h-22
			c0.1,3.3,1.8,6,8.4,6c2.9,0,6.7-0.7,9.7-2.1L188.6,43.6L188.6,43.6z M199.4,36.4c2.8,1.2,5.7,1.8,8.7,1.8c1.7,0,6-0.2,6-2.7
			c0-4.4-12.8-2.1-12.8-12.4c0-7.3,8.5-10.2,15.7-10.2c2.7,0,6.4,0.6,10.3,1.8l-2.3,7c-2.7-1.1-5.4-1.7-8.6-1.7c-2.4,0-5,0.5-5,2.7
			c0,3.5,13.4,3.2,13.4,11c0,7.7-6.5,11.5-14.6,11.6c-4.7,0.1-9.7-0.7-13.1-1.6L199.4,36.4L199.4,36.4z M238.4,0h10.9l-3.8,18.2h0.1
			c2.2-2.9,5.8-5.2,10.8-5.2c6.3,0,9.7,4.6,9.7,10.7c0,2.1-0.2,3.3-0.8,6.5l-2.9,14.5h-11.1l3-14.5c0.3-1.5,0.7-3.1,0.7-4.7
			c0-1.8-1.2-3.7-4.2-3.6c-4.5,0-7.2,3.9-8,8.5l-3,14.3h-10.7L238.4,0z M35.8,71.7H25.4l1.8-8.2h32l-1.8,8.2H47.1L40,105.1H28.7
			L35.8,71.7z M63.9,98.6c4.6,0,7.3-3.2,8.1-7.3c-0.9-0.2-2.2-0.2-2.9-0.2c-5.1-0.2-8.9,1.7-8.9,4.4C60.3,97,61.7,98.6,63.9,98.6
			L63.9,98.6z M71.1,100.7l-0.1-0.1v0.1c-2.3,3.6-6.3,5.1-10.4,5.1c-6.7,0-10.4-3-10.4-9c0-7.6,7.6-11.4,17.1-11.4
			c2.1,0,4.3,0.2,5.8,0.3c0.1-0.4,0.1-0.8,0.1-1.2c0-2.2-2.2-4-5.7-4c-3.9,0-6.5,0.6-10.1,2.4l1.1-7.8c3.2-1.1,6.6-1.8,11.4-1.8
			c7.4,0,13.5,2.9,13.5,10.5c0,4.9-2.7,11.8-3.9,21.2h-8.8L71.1,100.7L71.1,100.7z M97.6,61.1h10.9l-1.7,7.9H95.9L97.6,61.1
			L97.6,61.1z M94.8,74h10.9l-6.4,31H88.4L94.8,74z M151.2,105.1h-12.5l-0.4-22.4h-0.1L127.5,105h-12.5l-3-31h10.7l0.3,22.4h0.1
			L133.3,74h13l0.2,22.4h0.1l10-22.4h10.9L151.2,105.1z M180.2,98.6c4.6,0,7.3-3.2,8.1-7.3c-0.9-0.2-2.2-0.2-2.9-0.2
			c-5.1-0.2-8.9,1.7-8.9,4.4C176.5,97,177.9,98.6,180.2,98.6L180.2,98.6z M187.3,100.7l-0.1-0.1v0.1c-2.3,3.6-6.3,5.1-10.4,5.1
			c-6.7,0-10.4-3-10.4-9c0-7.6,7.6-11.4,17.1-11.4c2.1,0,4.3,0.2,5.8,0.3c0.1-0.4,0.1-0.8,0.1-1.2c0-2.2-2.2-4-5.7-4
			c-3.9,0-6.5,0.6-10.1,2.4l1.1-7.8c3.2-1.1,6.6-1.8,11.4-1.8c7.4,0,13.5,2.9,13.5,10.5c0,4.9-2.7,11.8-3.9,21.2h-8.8L187.3,100.7
			L187.3,100.7z M208.4,82.1c0.5-2.7,1-5.3,1.3-8.1h10l-0.8,5.1h0.1c3.1-3.5,6.3-5.8,12-5.8c6.3,0,9.7,4.6,9.7,10.7
			c0,2.1-0.2,3.3-0.8,6.5l-2.9,14.5h-11.1l3-14.5c0.3-1.5,0.7-3.1,0.7-4.7c0-1.8-1.2-3.7-4.2-3.6c-4.5,0-7.2,3.9-8,8.5l-3,14.3
			h-10.7L208.4,82.1L208.4,82.1z M42.6,300.5h-9.1v-29.4l4.6-3l4.6,3V300.5z M33.5,314h-9.1v-27.8l9.1,2.7V314z"/>
		<path class="st2" d="M51.7,314h-9.1v-25.1l9.1-2.7V314z"/>
		<defs>
			<filter id="Adobe_OpacityMaskFilter_1_" filterUnits="userSpaceOnUse" x="37.6" y="265.4" width="33.9" height="48.6">
				<feColorMatrix  type="matrix" values="1 0 0 0 0  0 1 0 0 0  0 0 1 0 0  0 0 0 1 0"/>
			</filter>
		</defs>
		<mask maskUnits="userSpaceOnUse" x="37.6" y="265.4" width="33.9" height="48.6" id="edwp4oijee_1_">
			<g class="st4">
				<path id="mcxoze067d_1_" class="st2" d="M0,323h266V0H0V323z"/>
			</g>
		</mask>
		<path class="st5" d="M37.6,270.4h0.9v-5h-0.9V270.4z M71.5,314l-2.3-13.4h-7.6L59.4,314L71.5,314z"/>
		<defs>
			<filter id="Adobe_OpacityMaskFilter_2_" filterUnits="userSpaceOnUse" x="59.9" y="289.7" width="11.1" height="11">
				<feColorMatrix  type="matrix" values="1 0 0 0 0  0 1 0 0 0  0 0 1 0 0  0 0 0 1 0"/>
			</filter>
		</defs>
		<mask maskUnits="userSpaceOnUse" x="59.9" y="289.7" width="11.1" height="11" id="edwp4oijee_2_">
			<g class="st6">
				<path id="mcxoze067d_2_" class="st2" d="M0,323h266V0H0V323z"/>
			</g>
		</mask>
		<path class="st7" d="M69.3,300.7h-7.6l-1.7-11H71L69.3,300.7z"/>
		<defs>
			<filter id="Adobe_OpacityMaskFilter_3_" filterUnits="userSpaceOnUse" x="59.9" y="278.7" width="11.1" height="11">
				<feColorMatrix  type="matrix" values="1 0 0 0 0  0 1 0 0 0  0 0 1 0 0  0 0 0 1 0"/>
			</filter>
		</defs>
		<mask maskUnits="userSpaceOnUse" x="59.9" y="278.7" width="11.1" height="11" id="edwp4oijee_3_">
			<g class="st8">
				<path id="mcxoze067d_3_" class="st2" d="M0,323h266V0H0V323z"/>
			</g>
		</mask>
		<path class="st9" d="M69.3,289.8h-7.6l-1.7-11H71L69.3,289.8z"/>
		<defs>
			<filter id="Adobe_OpacityMaskFilter_4_" filterUnits="userSpaceOnUse" x="59.9" y="267.8" width="11.1" height="11">
				<feColorMatrix  type="matrix" values="1 0 0 0 0  0 1 0 0 0  0 0 1 0 0  0 0 0 1 0"/>
			</filter>
		</defs>
		<mask maskUnits="userSpaceOnUse" x="59.9" y="267.8" width="11.1" height="11" id="edwp4oijee_4_">
			<g class="st10">
				<path id="mcxoze067d_4_" class="st2" d="M0,323h266V0H0V323z"/>
			</g>
		</mask>
		<path class="st11" d="M69.3,278.8h-7.6l-1.7-11H71L69.3,278.8z"/>
		<defs>
			<filter id="Adobe_OpacityMaskFilter_5_" filterUnits="userSpaceOnUse" x="63" y="263" width="4.9" height="4.9">
				<feColorMatrix  type="matrix" values="1 0 0 0 0  0 1 0 0 0  0 0 1 0 0  0 0 0 1 0"/>
			</filter>
		</defs>
		<mask maskUnits="userSpaceOnUse" x="63" y="263" width="4.9" height="4.9" id="edwp4oijee_5_">
			<g class="st12">
				<path id="mcxoze067d_5_" class="st2" d="M0,323h266V0H0V323z"/>
			</g>
		</mask>
		<path class="st13" d="M67.5,267.9h-4.1L63,263h4.9L67.5,267.9z"/>
		<defs>
			<filter id="Adobe_OpacityMaskFilter_6_" filterUnits="userSpaceOnUse" x="64.8" y="256.2" width="1.4" height="8.2">
				<feColorMatrix  type="matrix" values="1 0 0 0 0  0 1 0 0 0  0 0 1 0 0  0 0 0 1 0"/>
			</filter>
		</defs>
		<mask maskUnits="userSpaceOnUse" x="64.8" y="256.2" width="1.4" height="8.2" id="edwp4oijee_6_">
			<g class="st14">
				<path id="mcxoze067d_6_" class="st2" d="M0,323h266V0H0V323z"/>
			</g>
		</mask>
		<path class="st15" d="M64.8,264.4h1.4v-8.2h-1.4V264.4z"/>
		<defs>
			<filter id="Adobe_OpacityMaskFilter_7_" filterUnits="userSpaceOnUse" x="63.2" y="298.5" width="4.5" height="4.5">
				<feColorMatrix  type="matrix" values="1 0 0 0 0  0 1 0 0 0  0 0 1 0 0  0 0 0 1 0"/>
			</filter>
		</defs>
		<mask maskUnits="userSpaceOnUse" x="63.2" y="298.5" width="4.5" height="4.5" id="edwp4oijee_7_">
			<g class="st16">
				<path id="mcxoze067d_7_" class="st2" d="M0,323h266V0H0V323z"/>
			</g>
		</mask>
		<path class="st17" d="M67.7,300.8c0,1.2-1,2.3-2.3,2.3c-1.2,0-2.3-1-2.3-2.3c0-1.2,1-2.3,2.3-2.3
			C66.7,298.5,67.7,299.6,67.7,300.8"/>
		<defs>
			<filter id="Adobe_OpacityMaskFilter_8_" filterUnits="userSpaceOnUse" x="43.9" y="139.8" width="170" height="22.5">
				<feColorMatrix  type="matrix" values="1 0 0 0 0  0 1 0 0 0  0 0 1 0 0  0 0 0 1 0"/>
			</filter>
		</defs>
		<mask maskUnits="userSpaceOnUse" x="43.9" y="139.8" width="170" height="22.5" id="edwp4oijee_8_">
			<g class="st18">
				<path id="mcxoze067d_8_" class="st2" d="M0,323h266V0H0V323z"/>
			</g>
		</mask>
		<path class="st19" d="M57.8,162.1l51.9-12.2v-10H55.2c-6.2,0-11.3,5-11.3,11.3C43.9,158.4,50.7,163.7,57.8,162.1 M200,162.1
			L148,149.8v-10h54.5c6.2,0,11.3,5,11.3,11.3C213.9,158.4,207.1,163.7,200,162.1"/>
		<defs>
			<filter id="Adobe_OpacityMaskFilter_9_" filterUnits="userSpaceOnUse" x="63.5" y="97.1" width="130.7" height="154.3">
				<feColorMatrix  type="matrix" values="1 0 0 0 0  0 1 0 0 0  0 0 1 0 0  0 0 0 1 0"/>
			</filter>
		</defs>
		<mask maskUnits="userSpaceOnUse" x="63.5" y="97.1" width="130.7" height="154.3" id="edwp4oijee_9_">
			<g class="st20">
				<path id="mcxoze067d_9_" class="st2" d="M0,323h266V0H0V323z"/>
			</g>
		</mask>
		<path class="st21" d="M149.5,157.7h-41.4l-5.4-33.7c-2.3-14.1,8.7-26.9,23-26.9h6.2c14.3,0,25.3,12.8,23,26.9L149.5,157.7z
			 M78.7,251.4c-8.4,0-15.2-6.8-15.2-15.2v-15.1h15.2V251.4L78.7,251.4z M179,251.4c8.4,0,15.2-6.8,15.2-15.2v-15.1H179V251.4
			L179,251.4z"/>
		<defs>
			<filter id="Adobe_OpacityMaskFilter_10_" filterUnits="userSpaceOnUse" x="63.4" y="148.8" width="130.7" height="92.7">
				<feColorMatrix  type="matrix" values="1 0 0 0 0  0 1 0 0 0  0 0 1 0 0  0 0 0 1 0"/>
			</filter>
		</defs>
		<mask maskUnits="userSpaceOnUse" x="63.4" y="148.8" width="130.7" height="92.7" id="edwp4oijee_10_">
			<g class="st22">
				<path id="mcxoze067d_10_" class="st2" d="M0,323h266V0H0V323z"/>
			</g>
		</mask>
		<path class="st23" d="M138.8,148.8h-20c-30.6,0-55.4,24.7-55.4,55.2v17.1h15.3c0-17.2,14-31.1,31.2-31.1c6.8,0,13.5,2.2,18.9,6.4
			c5.4-4.2,12.1-6.4,18.9-6.4c17.2,0,31.2,13.9,31.2,31.1h15.2V204C194.2,173.5,169.4,148.8,138.8,148.8 M90.1,241.5
			c0-5.8,4.7-10.5,10.5-10.5c5.8,0,10.5,4.7,10.5,10.5H90.1z M146.7,241.5c0-5.8,4.7-10.5,10.5-10.5c5.8,0,10.5,4.7,10.5,10.5H146.7
			z"/>
		<defs>
			<filter id="Adobe_OpacityMaskFilter_11_" filterUnits="userSpaceOnUse" x="227.4" y="211.6" width="33.9" height="78">
				<feColorMatrix  type="matrix" values="1 0 0 0 0  0 1 0 0 0  0 0 1 0 0  0 0 0 1 0"/>
			</filter>
		</defs>
		<mask maskUnits="userSpaceOnUse" x="227.4" y="211.6" width="33.9" height="78" id="edwp4oijee_11_">
			<g class="st24">
				<path id="mcxoze067d_11_" class="st2" d="M0,323h266V0H0V323z"/>
			</g>
		</mask>
		<path class="st25" d="M227.4,229.5l1.3-5.3c2.1-8.9,11.1-14.3,19.9-12.2c8.9,2.1,14.4,11,12.2,19.9L247,289.6l-18.3-4.4l13.6-56.5
			c0.5-2.1-0.8-4.2-2.9-4.7c0,0,0,0,0,0c-2.1-0.5-4.2,0.8-4.7,2.9l-1,4.1L227.4,229.5L227.4,229.5z"/>
		<defs>
			<filter id="Adobe_OpacityMaskFilter_12_" filterUnits="userSpaceOnUse" x="205.8" y="236.4" width="26.9" height="82">
				<feColorMatrix  type="matrix" values="1 0 0 0 0  0 1 0 0 0  0 0 1 0 0  0 0 0 1 0"/>
			</filter>
		</defs>
		<mask maskUnits="userSpaceOnUse" x="205.8" y="236.4" width="26.9" height="82" id="edwp4oijee_12_">
			<g class="st26">
				<path id="mcxoze067d_12_" class="st2" d="M0,323h266V0H0V323z"/>
			</g>
		</mask>
		<path class="st27" d="M213.5,318.3l-7.6-1.8l19.2-80.1l7.6,1.8L213.5,318.3z"/>
		<defs>
			<filter id="Adobe_OpacityMaskFilter_13_" filterUnits="userSpaceOnUse" x="204" y="311.8" width="11.2" height="11.2">
				<feColorMatrix  type="matrix" values="1 0 0 0 0  0 1 0 0 0  0 0 1 0 0  0 0 0 1 0"/>
			</filter>
		</defs>
		<mask maskUnits="userSpaceOnUse" x="204" y="311.8" width="11.2" height="11.2" id="edwp4oijee_13_">
			<g class="st28">
				<path id="mcxoze067d_13_" class="st2" d="M0,323h266V0H0V323z"/>
			</g>
		</mask>
		<path class="st29" d="M215.1,318.7c-0.7,3-3.7,4.9-6.8,4.1c-3-0.7-4.9-3.7-4.2-6.7c0,0,0,0,0,0c0.7-3,3.7-4.9,6.8-4.1
			C213.9,312.7,215.8,315.7,215.1,318.7C215.1,318.7,215.1,318.7,215.1,318.7"/>
		<defs>
			<filter id="Adobe_OpacityMaskFilter_14_" filterUnits="userSpaceOnUse" x="223.3" y="240.4" width="8.4" height="5.1">
				<feColorMatrix  type="matrix" values="1 0 0 0 0  0 1 0 0 0  0 0 1 0 0  0 0 0 1 0"/>
			</filter>
		</defs>
		<mask maskUnits="userSpaceOnUse" x="223.3" y="240.4" width="8.4" height="5.1" id="edwp4oijee_14_">
			<g class="st30">
				<path id="mcxoze067d_14_" class="st2" d="M0,323h266V0H0V323z"/>
			</g>
		</mask>
		<path class="st31" d="M223.3,243.6l7.6,1.8l0.8-3.3l-7.6-1.8L223.3,243.6z"/>
		<defs>
			<filter id="Adobe_OpacityMaskFilter_15_" filterUnits="userSpaceOnUse" x="222.7" y="242.7" width="8.5" height="5.6">
				<feColorMatrix  type="matrix" values="1 0 0 0 0  0 1 0 0 0  0 0 1 0 0  0 0 0 1 0"/>
			</filter>
		</defs>
		<mask maskUnits="userSpaceOnUse" x="222.7" y="242.7" width="8.5" height="5.6" id="edwp4oijee_15_">
			<g class="st32">
				<path id="mcxoze067d_15_" class="st2" d="M0,323h266V0H0V323z"/>
			</g>
		</mask>
		<path class="st33" d="M229.4,248l0.9,0.2l0.9-3.8l-0.9-0.2L229.4,248z M227.7,247.6l0.9,0.2l0.9-3.8l-0.9-0.2L227.7,247.6z
			 M226,247.2l0.9,0.2l0.9-3.8l-0.9-0.2L226,247.2z M224.3,246.8l0.9,0.2l0.9-3.8l-0.9-0.2L224.3,246.8z M222.7,246.4l0.9,0.2
			l0.9-3.8l-0.9-0.2L222.7,246.4z"/>
		<defs>
			<filter id="Adobe_OpacityMaskFilter_16_" filterUnits="userSpaceOnUse" x="222.1" y="229.5" width="13.9" height="13.9">
				<feColorMatrix  type="matrix" values="1 0 0 0 0  0 1 0 0 0  0 0 1 0 0  0 0 0 1 0"/>
			</filter>
		</defs>
		<mask maskUnits="userSpaceOnUse" x="222.1" y="229.5" width="13.9" height="13.9" id="edwp4oijee_16_">
			<g class="st34">
				<path id="mcxoze067d_16_" class="st2" d="M0,323h266V0H0V323z"/>
			</g>
		</mask>
		<path class="st35" d="M222.3,234.8c-0.9,3.7,1.4,7.5,5.1,8.4c3.7,0.9,7.5-1.4,8.4-5.1c0.9-3.7-1.4-7.5-5.1-8.4
			C227,228.8,223.2,231.1,222.3,234.8"/>
	</g>
	<g transform="translate(324.89 304.57)">
		<defs>
			<filter id="Adobe_OpacityMaskFilter_17_" filterUnits="userSpaceOnUse" x="0.8" y="1.5" width="14.2" height="4.3">
				<feColorMatrix  type="matrix" values="1 0 0 0 0  0 1 0 0 0  0 0 1 0 0  0 0 0 1 0"/>
			</filter>
		</defs>
		<mask maskUnits="userSpaceOnUse" x="0.8" y="1.5" width="14.2" height="4.3" id="tlaogedfpg_1_">
			<g class="st36">
				<path id="d2geyzm5of_1_" class="st2" d="M0.2,5.1c-0.9,3.6,1.4,7.2,4.9,8c0,0,0,0,0,0c3.6,0.9,7.2-1.3,8.1-4.9
					c0.9-3.6-1.4-7.2-4.9-8c0,0,0,0,0,0C4.7-0.7,1,1.5,0.2,5.1L0.2,5.1z"/>
			</g>
		</mask>
		<path class="st37" d="M14.7,5.9L0.8,2.5l0.2-1L15,4.9L14.7,5.9z"/>
	</g>
	<g transform="translate(324.89 304.57)">
		<defs>
			<filter id="Adobe_OpacityMaskFilter_18_" filterUnits="userSpaceOnUse" x="0.1" y="4.6" width="14.2" height="4.3">
				<feColorMatrix  type="matrix" values="1 0 0 0 0  0 1 0 0 0  0 0 1 0 0  0 0 0 1 0"/>
			</filter>
		</defs>
		<mask maskUnits="userSpaceOnUse" x="0.1" y="4.6" width="14.2" height="4.3" id="a221rql8oi_1_">
			<g class="st38">
				<path id="_x34_l88nlxzsh_1_" class="st2" d="M0.2,5.1c-0.9,3.6,1.4,7.2,4.9,8c0,0,0,0,0,0c3.6,0.9,7.2-1.3,8.1-4.9
					c0.9-3.6-1.4-7.2-4.9-8c0,0,0,0,0,0C4.7-0.7,1,1.5,0.2,5.1L0.2,5.1z"/>
			</g>
		</mask>
		<path class="st39" d="M14,9L0.1,5.6l0.2-1L14.2,8L14,9z"/>
	</g>
	<g transform="translate(324.89 304.57)">
		<defs>
			<filter id="Adobe_OpacityMaskFilter_19_" filterUnits="userSpaceOnUse" x="-0.7" y="7.7" width="14.2" height="4.3">
				<feColorMatrix  type="matrix" values="1 0 0 0 0  0 1 0 0 0  0 0 1 0 0  0 0 0 1 0"/>
			</filter>
		</defs>
		<mask maskUnits="userSpaceOnUse" x="-0.7" y="7.7" width="14.2" height="4.3" id="lcagpj1y9k_1_">
			<g class="st40">
				<path id="p1vlo085pj_1_" class="st2" d="M0.2,5.1c-0.9,3.6,1.4,7.2,4.9,8c0,0,0,0,0,0c3.6,0.9,7.2-1.3,8.1-4.9
					c0.9-3.6-1.4-7.2-4.9-8c0,0,0,0,0,0C4.7-0.7,1,1.5,0.2,5.1L0.2,5.1z"/>
			</g>
		</mask>
		<path class="st41" d="M13.3,12L-0.7,8.7l0.2-1L13.5,11L13.3,12z"/>
	</g>
	<g>
		<path class="st42" d="M329.5,306l7.8,1.9l0.5-2l-7.8-1.9L329.5,306z"/>
		<g transform="translate(103 79.422)">
			<defs>
				<filter id="Adobe_OpacityMaskFilter_20_" filterUnits="userSpaceOnUse" x="0" y="0" width="39.6" height="41.4">
					<feColorMatrix  type="matrix" values="1 0 0 0 0  0 1 0 0 0  0 0 1 0 0  0 0 0 1 0"/>
				</filter>
			</defs>
			<mask maskUnits="userSpaceOnUse" x="0" y="0" width="39.6" height="41.4" id="d3sr0t0zsm_1_">
				<g class="st43">
					<path id="_x36_e0ff6e8il_1_" class="st2" d="M0,0h39.6v41.4H0V0z"/>
				</g>
			</mask>
			<path class="st44" d="M16.1,17.2h3.8c4.8,0,8.6-1.2,8.6-5.1c0-3-1.8-4.2-5.1-4.3H18C18,7.8,16.1,17.2,16.1,17.2z M8.8,0h13.3
				C30,0.1,39.6,0.3,39.6,10.6c0,7.3-5.7,9.9-12.1,10.6v0.1c3.3,0.3,4.4,4.7,5,7.4l3,12.8H24.3l-2.1-10.6c-1.1-5.4-1.4-5.8-6.4-5.8
				h-1.2l-3.3,16.4H0L8.8,0z"/>
		</g>
		<path class="st2" d="M169,102.5c0-3.3-1.3-6.1-5.2-6.1c-4.7,0-7.2,3.1-7.9,6.1H169L169,102.5z M171.9,119.8
			c-3.8,1.1-7.8,1.7-10.9,1.7c-10.4,0-16-6.4-16-14.1c0-7.2,4.8-18.2,18.6-18.2c8.2,0,14.3,4.1,14.3,13.5c0,1.2-0.4,4-0.8,5.8h-22
			c0.1,3.3,1.8,5.9,8.4,5.9c2.9,0,6.7-0.7,9.7-2.1L171.9,119.8L171.9,119.8z M184.1,101h16.2l-1.6,7.8h-16.1L184.1,101z M211,79.4
			h27.9l-1.6,7.8h-16.9l-2.1,9.1h16.4l-1.6,7.8h-16.1l-3.5,16.7h-11.2L211,79.4z M252.7,89.9l-1.2,6.4h0.1c1.7-3.6,5.2-7.1,9.6-7.1
			c1.4,0,3.1,0.2,4.5,0.8l-2.4,9.4c-1.4-1.1-2.9-1.3-5-1.3c-4.5,0-7.2,3.9-8,8.5l-3,14.2h-10.7l4.8-22.9c0.5-2.7,1-5.3,1.3-8.1
			L252.7,89.9L252.7,89.9z M288.7,102.5c0-3.3-1.3-6.1-5.3-6.1c-4.7,0-7.2,3.1-7.9,6.1H288.7z M291.6,119.8
			c-3.8,1.1-7.8,1.7-10.9,1.7c-10.4,0-16-6.4-16-14.1c0-7.2,4.8-18.2,18.6-18.2c8.2,0,14.3,4.1,14.3,13.5c0,1.2-0.4,4-0.8,5.8h-22
			c0.1,3.3,1.8,5.9,8.4,5.9c2.9,0,6.7-0.7,9.7-2.1L291.6,119.8z M302.4,112.7c2.8,1.2,5.7,1.8,8.7,1.8c1.7,0,6-0.2,6-2.7
			c0-4.4-12.8-2.1-12.8-12.3c0-7.2,8.5-10.2,15.7-10.2c2.7,0,6.4,0.6,10.3,1.8l-2.3,7c-2.7-1.1-5.4-1.7-8.6-1.7c-2.4,0-5,0.5-5,2.7
			c0,3.4,13.4,3.2,13.4,11c0,7.7-6.5,11.5-14.6,11.6c-4.7,0.1-9.7-0.7-13.1-1.6L302.4,112.7L302.4,112.7z M341.4,76.3h10.9
			l-3.8,18.1h0.1c2.2-2.9,5.8-5.2,10.8-5.2c6.3,0,9.7,4.6,9.7,10.7c0,2.1-0.2,3.3-0.8,6.5l-2.9,14.4h-11.1l3-14.5
			c0.3-1.5,0.7-3.1,0.7-4.7c0-1.8-1.2-3.7-4.2-3.6c-4.5,0-7.2,3.9-8,8.5l-3,14.2h-10.7L341.4,76.3L341.4,76.3z M138.8,147.9h-10.4
			l1.8-8.2h32l-1.8,8.2h-10.4l-7.1,33.2h-11.3L138.8,147.9z M166.9,174.7c4.6,0,7.3-3.1,8.1-7.3c-0.9-0.2-2.2-0.2-2.9-0.2
			c-5.1-0.2-8.9,1.7-8.9,4.4C163.3,173,164.7,174.7,166.9,174.7L166.9,174.7z M174.1,176.8l-0.1-0.1v0.1c-2.3,3.6-6.3,5-10.4,5
			c-6.7,0-10.4-3-10.4-9c0-7.6,7.6-11.3,17.1-11.3c2.1,0,4.3,0.2,5.8,0.3c0.1-0.4,0.1-0.8,0.1-1.2c0-2.2-2.2-4-5.7-4
			c-3.9,0-6.5,0.6-10.1,2.4l1.1-7.8c3.2-1.1,6.6-1.8,11.4-1.8c7.4,0,13.5,2.9,13.5,10.5c0,4.9-2.7,11.8-3.9,21.1h-8.8L174.1,176.8
			L174.1,176.8z M200.6,137.3h10.9l-1.7,7.8h-10.9L200.6,137.3L200.6,137.3z M197.8,150.2h10.9l-6.4,30.9h-10.9L197.8,150.2
			L197.8,150.2z M254.2,181.1h-12.5l-0.4-22.4h-0.1l-10.7,22.4h-12.5l-3-30.9h10.7l0.3,22.4h0.1l10.2-22.4h13l0.2,22.4h0.1l10-22.4
			h10.9L254.2,181.1z M283.2,174.7c4.6,0,7.3-3.1,8.1-7.3c-0.9-0.2-2.2-0.2-2.9-0.2c-5.1-0.2-8.9,1.7-8.9,4.4
			C279.5,173,280.9,174.7,283.2,174.7L283.2,174.7z M290.3,176.8l-0.1-0.1v0.1c-2.3,3.6-6.3,5-10.4,5c-6.7,0-10.4-3-10.4-9
			c0-7.6,7.6-11.3,17.1-11.3c2.1,0,4.3,0.2,5.8,0.3c0.1-0.4,0.1-0.8,0.1-1.2c0-2.2-2.2-4-5.7-4c-3.9,0-6.5,0.6-10.1,2.4l1.1-7.8
			c3.2-1.1,6.6-1.8,11.4-1.8c7.4,0,13.5,2.9,13.5,10.5c0,4.9-2.7,11.8-3.9,21.1h-8.8L290.3,176.8z M311.4,158.2
			c0.5-2.7,1-5.3,1.3-8.1h10l-0.8,5h0.1c3.1-3.4,6.3-5.8,12-5.8c6.3,0,9.7,4.6,9.7,10.7c0,2.1-0.2,3.3-0.8,6.5l-2.9,14.4h-11.1
			l3-14.5c0.3-1.5,0.7-3.1,0.7-4.7c0-1.8-1.2-3.7-4.2-3.6c-4.5,0-7.2,3.9-8,8.5l-3,14.2h-10.7L311.4,158.2L311.4,158.2z"/>
		<path class="st42" d="M160.8,237.9l51.9-12.2v-10h-54.5c-6.2,0-11.3,5-11.3,11.2C146.9,234.3,153.7,239.6,160.8,237.9 M303,237.9
			L251,225.7v-10h54.5c6.2,0,11.3,5,11.3,11.2C316.9,234.3,310.1,239.6,303,237.9"/>
		<path class="st42" d="M252.5,233.6h-41.4l-5.4-33.6c-2.3-14.1,8.7-26.8,23-26.8h6.2c14.3,0,25.3,12.8,23,26.8L252.5,233.6
			L252.5,233.6z M181.7,327c-8.4,0-15.2-6.8-15.2-15.2v-15.1h15.2V327z M282,327c8.4,0,15.2-6.8,15.2-15.2v-15.1H282V327z"/>
		<path class="st42" d="M241.8,224.7h-20c-30.6,0-55.4,24.7-55.4,55.1v17h15.3c0-17.1,14-31,31.2-31c6.8,0,13.5,2.2,18.9,6.4
			c5.4-4.1,12.1-6.4,18.9-6.4c17.2,0,31.2,13.9,31.2,31h15.2v-17C297.2,249.4,272.4,224.7,241.8,224.7 M193.1,317.1
			c0-5.8,4.7-10.5,10.5-10.5c5.8,0,10.5,4.7,10.5,10.5H193.1L193.1,317.1z M249.7,317.1c0-5.8,4.7-10.5,10.5-10.5
			c5.8,0,10.5,4.7,10.5,10.5H249.7L249.7,317.1z"/>
		<path class="st2" d="M177.9,289.3c0,15.7-7.6,28.4-17,28.4s-17-12.7-17-28.4s7.6-28.4,17-28.4S177.9,273.6,177.9,289.3
			 M317.4,289.3c0,15.7-7.6,28.4-17,28.4c-9.4,0-17-12.7-17-28.4s7.6-28.4,17-28.4C309.8,260.9,317.4,273.6,317.4,289.3"/>
		<path class="st45" d="M168.8,271.2c0,0,7.9-48.9,64.9-48.9"/>
		<path class="st45" d="M295.6,271.2c0,0-7.9-48.9-64.9-48.9"/>
		<path class="st46" d="M315,289.3c0,8.9-4.3,16.2-9.7,16.2s-9.7-7.3-9.7-16.2s4.3-16.2,9.7-16.2S315,280.3,315,289.3 M165.8,289.3
			c0,8.9-4.3,16.2-9.7,16.2c-5.4,0-9.7-7.3-9.7-16.2s4.3-16.2,9.7-16.2C161.5,273.1,165.8,280.3,165.8,289.3"/>
		<path class="st2" d="M275.6,338.1h-83.7c-2.3,0-4.2,1.9-4.2,4.2v43.4c0,2.3,1.9,4.2,4.2,4.2h83.7c2.3,0,4.2-1.9,4.2-4.2v-43.4
			C279.8,340,277.9,338.1,275.6,338.1"/>
		<path class="st46" d="M230.1,365.3c0,9-7.3,16.3-16.4,16.3s-16.4-7.3-16.4-16.3c0-9,7.3-16.3,16.4-16.3S230.1,356.3,230.1,365.3
			 M271.3,365.3c0,9-7.3,16.3-16.4,16.3c-9,0-16.4-7.3-16.4-16.3c0-9,7.3-16.3,16.4-16.3S271.3,356.3,271.3,365.3"/>
		<path class="st2" d="M232.2,350.5l-2,1.3c-0.6,0.4-1.4,0.2-1.8-0.4l-1.9-2.9c-0.4-0.6-0.2-1.4,0.4-1.7c0,0,0,0,0,0l2-1.3
			L232.2,350.5L232.2,350.5z"/>
		<path class="st2" d="M228,351.7l0.5-0.3l-2-3.1l-0.5,0.3c-0.3,0.2-0.4,0.6-0.2,0.9c0,0,0,0,0,0l1.3,2
			C227.4,351.8,227.7,351.9,228,351.7"/>
		<path class="st2" d="M219.7,357.8c-0.9-1.4-0.5-3.3,0.9-4.2c0,0,0,0,0,0l5.6-3.5l0.7,1l-5.6,3.5c-0.9,0.6-1.1,1.7-0.6,2.6
			c0,0,0,0,0,0L219.7,357.8L219.7,357.8z"/>
		<path class="st2" d="M222.6,359.5l-1.5,1c-0.4,0.3-1,0.1-1.3-0.3l-1-1.5c-0.3-0.4-0.1-1,0.3-1.3c0,0,0,0,0,0l1.5-1
			c0.4-0.3,1-0.1,1.3,0.3l1,1.5C223.1,358.7,223,359.2,222.6,359.5C222.6,359.5,222.6,359.5,222.6,359.5 M275.9,350.5l-2,1.3
			c-0.6,0.4-1.4,0.2-1.8-0.4l-1.9-2.9c-0.4-0.6-0.2-1.4,0.4-1.7c0,0,0,0,0,0l2-1.3L275.9,350.5z M271.7,351.7l0.5-0.3l-2-3.1
			l-0.5,0.3c-0.3,0.2-0.4,0.6-0.2,0.9c0,0,0,0,0,0l1.3,2C271,351.8,271.4,351.9,271.7,351.7"/>
		<path class="st2" d="M263.4,357.8c-0.9-1.4-0.5-3.3,0.9-4.2c0,0,0,0,0,0l5.6-3.5l0.7,1l-5.6,3.5c-0.9,0.6-1.1,1.7-0.6,2.6
			c0,0,0,0,0,0L263.4,357.8L263.4,357.8z"/>
		<path class="st2" d="M266.2,359.5l-1.5,1c-0.4,0.3-1,0.1-1.3-0.3l-1-1.5c-0.3-0.4-0.1-1,0.3-1.3c0,0,0,0,0,0l1.5-1
			c0.4-0.3,1-0.1,1.3,0.3l1,1.5C266.8,358.7,266.6,359.2,266.2,359.5C266.2,359.5,266.2,359.5,266.2,359.5"/>
		<path class="st46" d="M226.8,345.4h-2c-0.5,0-0.8-0.4-0.8-0.8l0,0v-2c0-0.5,0.4-0.8,0.8-0.8h2c0.5,0,0.8,0.4,0.8,0.8v2
			C227.7,345,227.3,345.4,226.8,345.4 M234.7,345.4h-2c-0.5,0-0.8-0.4-0.8-0.8l0,0v-2c0-0.5,0.4-0.8,0.8-0.8h2
			c0.5,0,0.8,0.4,0.8,0.8v2C235.5,345,235.2,345.4,234.7,345.4 M233.2,350.2H233c-0.3,0-0.5-0.2-0.5-0.5l0,0V347
			c0-0.3,0.2-0.5,0.5-0.5h0.3c0.3,0,0.5,0.2,0.5,0.5v2.7C233.7,350,233.5,350.2,233.2,350.2C233.2,350.2,233.2,350.2,233.2,350.2
			 M242.6,345.4h-2c-0.5,0-0.8-0.4-0.8-0.8l0,0v-2c0-0.5,0.4-0.8,0.8-0.8h2c0.5,0,0.8,0.4,0.8,0.8v2
			C243.4,345,243.1,345.4,242.6,345.4"/>
		<path class="st47" d="M224,348.4h19.4"/>
		<path class="st2" d="M216.1,365.3c0,1.3-1.1,2.4-2.4,2.4c-1.3,0-2.4-1.1-2.4-2.4l0,0c0-1.3,1.1-2.4,2.4-2.4h0
			C215,362.8,216.1,363.9,216.1,365.3 M257.4,365.3c0,1.3-1.1,2.4-2.4,2.4c-1.3,0-2.4-1.1-2.4-2.4l0,0c0-1.3,1.1-2.4,2.4-2.4h0
			C256.3,362.8,257.4,363.9,257.4,365.3"/>
	</g>
</g>
</svg>
