<?xml version="1.0" encoding="utf-8"?>
<!-- Generator: Adobe Illustrator 24.3.0, SVG Export Plug-In . SVG Version: 6.00 Build 0)  -->
<svg version="1.1" id="Capa_1" xmlns="http://www.w3.org/2000/svg" xmlns:xlink="http://www.w3.org/1999/xlink" x="0px" y="0px"
	 viewBox="0 0 45.35 45.35" style="enable-background:new 0 0 45.35 45.35;" xml:space="preserve">
<style type="text/css">
	.st0{fill:#F2F2F2;}
</style>
<g>
	<path class="st0" d="M35.63,1.63c0-0.61-0.36-1.2-0.91-1.46C34.14-0.12,33.49-0.03,33,0.36L18.65,11.8l16.97,16.97L35.63,1.63
		L35.63,1.63z"/>
	<path class="st0" d="M44.87,42.59L2.76,0.48c-0.63-0.63-1.66-0.63-2.29,0c-0.63,0.63-0.63,1.66,0,2.29l10.19,10.19H9.71
		c-1,0-1.88,0.45-2.46,1.17c-0.49,0.55-0.78,1.3-0.78,2.07v12.96c0,1.78,1.46,3.24,3.24,3.24h7.52L33.01,45
		c0.29,0.23,0.65,0.36,1.01,0.36c0.23,0,0.48-0.06,0.71-0.16c0.55-0.26,0.91-0.84,0.91-1.46v-5.81l6.95,6.95
		c0.32,0.32,0.73,0.48,1.15,0.48c0.42,0,0.83-0.16,1.15-0.47C45.5,44.25,45.5,43.22,44.87,42.59z"/>
</g>
</svg>
