<?xml version="1.0" encoding="utf-8"?>
<!-- Generator: Adobe Illustrator 24.3.0, SVG Export Plug-In . SVG Version: 6.00 Build 0)  -->
<svg version="1.1" id="Capa_1" xmlns="http://www.w3.org/2000/svg" xmlns:xlink="http://www.w3.org/1999/xlink" x="0px" y="0px"
	 viewBox="0 0 45.35 42.33" style="enable-background:new 0 0 45.35 42.33;" xml:space="preserve">
<style type="text/css">
	.st0{fill:#F2F2F2;}
</style>
<g>
	<path class="st0" d="M26.36,0.15c-0.53-0.25-1.15-0.18-1.6,0.18L10.05,12.1H3.02C1.36,12.1,0,13.45,0,15.12v12.1
		c0,1.67,1.36,3.02,3.02,3.02h7.03L24.75,42c0.27,0.22,0.61,0.33,0.95,0.33c0.23,0,0.45-0.05,0.66-0.15
		c0.52-0.25,0.86-0.78,0.86-1.36V1.51C27.21,0.93,26.88,0.4,26.36,0.15z"/>
	<path class="st0" d="M34.87,10.48c-0.6-0.59-1.55-0.58-2.14,0.01c-0.59,0.6-0.58,1.55,0.01,2.14c2.29,2.26,3.54,5.29,3.54,8.54
		s-1.26,6.28-3.54,8.54c-0.59,0.58-0.6,1.54-0.01,2.14c0.3,0.3,0.69,0.45,1.07,0.45c0.39,0,0.77-0.15,1.06-0.44
		c2.87-2.82,4.44-6.62,4.44-10.69S37.73,13.3,34.87,10.48z"/>
	<path class="st0" d="M39.13,6.22c-0.6-0.59-1.55-0.58-2.14,0.01C36.4,6.82,36.41,7.78,37,8.36c3.44,3.41,5.33,7.95,5.33,12.8
		c0,4.85-1.89,9.39-5.33,12.8c-0.59,0.59-0.6,1.55-0.01,2.14c0.3,0.3,0.69,0.44,1.07,0.44c0.38,0,0.77-0.14,1.07-0.44
		c4.02-3.98,6.22-9.29,6.22-14.95C45.35,15.5,43.15,10.19,39.13,6.22z"/>
</g>
</svg>
